<?xml version="1.0" encoding="UTF-8" standalone="no"?>
<svg
   width="22"
   height="22"
   version="1.1"
   id="svg1"
   sodipodi:docname="weather-sunset-down.svg"
   inkscape:version="1.4.3 (0d15f75042, 2025-12-25)"
   xmlns:inkscape="http://www.inkscape.org/namespaces/inkscape"
   xmlns:sodipodi="http://sodipodi.sourceforge.net/DTD/sodipodi-0.dtd"
   xmlns="http://www.w3.org/2000/svg"
   xmlns:svg="http://www.w3.org/2000/svg">
  <sodipodi:namedview
     id="namedview1"
     pagecolor="#ffffff"
     bordercolor="#000000"
     borderopacity="0.25"
     inkscape:showpageshadow="2"
     inkscape:pageopacity="0.0"
     inkscape:pagecheckerboard="0"
     inkscape:deskcolor="#d1d1d1"
     inkscape:zoom="4.4204545"
     inkscape:cx="30.766067"
     inkscape:cy="49.203085"
     inkscape:window-width="1078"
     inkscape:window-height="984"
     inkscape:window-x="0"
     inkscape:window-y="0"
     inkscape:window-maximized="0"
     inkscape:current-layer="svg1" />
  <defs
     id="defs1">
    <style
       id="current-color-scheme"
       type="text/css">
   .ColorScheme-Text { color:#dfdfdf; } .ColorScheme-Highlight { color:#4285f4; } .ColorScheme-NeutralText { color:#ff9800; } .ColorScheme-PositiveText { color:#4caf50; } .ColorScheme-NegativeText { color:#f44336; }
  </style>
  </defs>
  <path
     style="fill:currentColor"
     class="ColorScheme-Text"
     d="m 3.4210525,11.421053 h 3.368421 A 4.2105263,4.2105263 0 0 1 11,7.210526 a 4.2105263,4.2105263 0 0 1 4.210527,4.210527 h 3.36842 a 0.84210526,0.84210526 0 0 1 0.842105,0.842105 0.84210526,0.84210526 0 0 1 -0.842105,0.842105 H 3.4210525 a 0.84210526,0.84210526 0 0 1 -0.842105,-0.842105 0.84210526,0.84210526 0 0 1 0.842105,-0.842105 m 10.1052625,0 A 2.5263158,2.5263158 0 0 0 11,8.894737 2.5263158,2.5263158 0 0 0 8.4736845,11.421053 H 13.526315 M 11,3 13.012631,5.88 C 12.389474,5.652632 11.707369,5.526316 11,5.526316 10.292631,5.526316 9.6105265,5.652632 8.9873685,5.88 L 11,3 M 3.7073685,7.210526 7.2105265,6.915789 c -0.505263,0.429474 -0.96,0.951579 -1.313684,1.557895 -0.370527,0.623158 -0.581053,1.263158 -0.698948,1.928421 L 3.7073685,7.210526 m 14.5768415,0 -1.490526,3.191579 C 16.675789,9.736842 16.448421,9.088421 16.094736,8.473684 c -0.353684,-0.606316 -0.8,-1.136842 -1.305262,-1.566316 l 3.494736,0.303158 m -6.686315,11.545263 2.618948,-2.618947 c 0.328421,-0.328421 0.328421,-0.867368 0,-1.195789 -0.328421,-0.328421 -0.858948,-0.328421 -1.187369,0 l -2.029473,2.029473 -2.0294745,-2.029473 c -0.328421,-0.328421 -0.858947,-0.328421 -1.187368,0 -0.328422,0.328421 -0.328422,0.867368 0,1.195789 l 2.6189475,2.618947 C 10.578947,18.915789 10.781053,19 11,19 c 0.218947,0 0.421052,-0.08421 0.597895,-0.244211 z"
     id="path1" />
</svg>
